<svg width="4" height="14" viewBox="0 0 4 14" fill="none" xmlns="http://www.w3.org/2000/svg">
<path fill-rule="evenodd" clip-rule="evenodd" d="M3.73327 1.80001C3.73327 0.842721 2.95723 0.0666809 1.99993 0.0666809C1.04264 0.066681 0.266602 0.842721 0.266602 1.80001C0.266602 2.75731 1.04264 3.53335 1.99993 3.53335C2.95723 3.53335 3.73327 2.75731 3.73327 1.80001ZM1.99993 5.26668C2.95723 5.26668 3.73327 6.04272 3.73327 7.00001C3.73327 7.95731 2.95723 8.73335 1.99993 8.73335C1.04264 8.73335 0.266602 7.95731 0.266602 7.00001C0.266602 6.04272 1.04264 5.26668 1.99993 5.26668ZM1.99993 10.4667C2.95723 10.4667 3.73327 11.2427 3.73327 12.2C3.73327 13.1573 2.95723 13.9333 1.99993 13.9333C1.04264 13.9333 0.266602 13.1573 0.266602 12.2C0.266602 11.2427 1.04264 10.4667 1.99993 10.4667Z" fill="white"/>
</svg>
