<svg width="100%" height="100%" viewBox="0 0 20 20" fill="none"
  xmlns="http://www.w3.org/2000/svg">
  <path d="M10 20C15.5228 20 20 15.5228 20 10C20 4.47715 15.5228 0 10 0C4.47715 0 0 4.47715 0 10C0 15.5228 4.47715 20 10 20Z" fill="#D1DEE6"/>
  <path d="M10 4V7.73631L12.44 11.6116L15.9797 13.4959C16.0116 13.4449 16.007 13.3745 15.9582 13.2971L13.0679 8.70674L10.1776 4.11635C10.1286 4.03873 10.0642 4 10 4Z" fill="white"/>
  <path d="M4.02024 13.4959L7.55997 11.6117L10.0002 7.73631V4C9.93572 4 9.87144 4.03873 9.82264 4.11627L6.93214 8.70674L4.04164 13.297C3.99302 13.3745 3.98846 13.4448 4.02024 13.4959Z" fill="white"/>
  <path d="M15.9798 13.4958L12.4402 11.6116H7.55999L4.02026 13.4958C4.05232 13.547 4.12108 13.5788 4.21859 13.5788H15.7816C15.8792 13.5788 15.9477 13.547 15.9798 13.4958Z" fill="white"/>
</svg>
