<svg width="16" height="20" viewBox="0 0 16 20" fill="none" 
  xmlns="http://www.w3.org/2000/svg">
  <path fill-rule="evenodd" clip-rule="evenodd" d="M0.802659 15.5873C0.30461 15.2826 0 14.7402 0 14.1576V10.9047C0 10.7802 0.0333515 10.6602 0.0956074 10.5534C0.289046 10.2199 0.718168 10.1065 1.05168 10.3021L8.39348 14.5822C8.82259 14.8335 9.08719 15.2916 9.08719 15.7896V19.1603C9.08719 19.3137 9.04489 19.4671 8.96489 19.5983C8.72252 19.9941 8.20667 20.1186 7.81089 19.8762L0.802659 15.5873ZM11.7464 9.41052C12.1755 9.66178 12.4401 10.1199 12.4401 10.6179V17.4571C12.4401 17.6595 12.3311 17.8462 12.1555 17.9441L10.5479 18.849C10.5279 18.8602 10.5057 18.869 10.4835 18.8757V15.0781C10.4835 14.5867 10.2256 14.1309 9.80311 13.8774L3.35516 10.0198V5.733C3.35516 5.60848 3.38851 5.48842 3.45076 5.3817C3.6442 5.04818 4.07333 4.93479 4.40684 5.13045L11.7464 9.41052ZM14.9593 4.35892C15.3906 4.60794 15.6552 5.07042 15.6552 5.56847V15.5584C15.6552 15.7629 15.5418 15.9519 15.3617 16.0497L13.8386 16.8724V9.91748C13.8386 9.42615 13.5807 8.97252 13.1605 8.71904L6.57024 4.76581V0.699151C6.57024 0.574639 6.60359 0.454574 6.66362 0.347849C6.85706 0.0143345 7.28618 -0.0990602 7.61971 0.0943783L14.9593 4.35892Z" fill="black"/>
</svg>
