<svg width="15" height="20" viewBox="0 0 15 20" fill="none" 
  xmlns="http://www.w3.org/2000/svg">
  <path fill-rule="evenodd" clip-rule="evenodd" d="M8.17221 0.0803132L13.2756 3.83137C13.5033 4.00147 13.4801 4.33718 13.2291 4.47594L5.67164 8.65672L7.53545 0.3086C7.59587 0.031075 7.93517 -0.0942586 8.17221 0.0803132ZM13.4416 14.2764L5.97015 10.0026L13.4416 5.72416C13.704 5.57523 14.0299 5.76027 14.0299 6.06264V13.938C14.0299 14.2358 13.704 14.4254 13.4416 14.2764ZM8.16741 19.9217L13.2751 16.1697C13.5029 15.9996 13.4796 15.6638 13.2333 15.525L5.67164 11.3433L7.53534 19.6933C7.59111 19.9709 7.93503 20.0918 8.16741 19.9217ZM5.96077 0.773708L4.029 9.85301L5.96077 18.9278C6.03679 19.2846 5.63433 19.5421 5.34815 19.3208L0.402452 15.5084C0.147566 15.3141 0 15.007 0 14.6863V5.01523C0 4.69452 0.147566 4.38736 0.402452 4.19313L5.34815 0.380724C5.63433 0.159388 6.03679 0.41686 5.96077 0.773708Z" fill="black"/>
</svg>
