<svg width="100%" height="100%" viewBox="0 0 21 21" fill="none"
  xmlns="http://www.w3.org/2000/svg">
  <path d="M10.4056 20.9877C15.9284 20.9877 20.4056 16.5105 20.4056 10.9877C20.4056 5.46484 15.9284 0.987689 10.4056 0.987689C4.88273 0.987689 0.405579 5.46484 0.405579 10.9877C0.405579 16.5105 4.88273 20.9877 10.4056 20.9877Z" fill="#D2DEE6"/>
  <path fill-rule="evenodd" clip-rule="evenodd" d="M7.4906 7.48771V14.9877H13.7406L7.4906 7.48771Z" fill="#C3D3DD"/>
  <path fill-rule="evenodd" clip-rule="evenodd" d="M1.2406 14.9877H7.4906V7.48771L1.2406 14.9877Z" fill="white"/>
  <path fill-rule="evenodd" clip-rule="evenodd" d="M4.40558 18.9877C6.07558 20.2427 8.15558 20.9877 10.4056 20.9877C12.6556 20.9877 14.7356 20.2427 16.4056 18.9877H4.40558Z" fill="#C3D3DD"/>
  <path fill-rule="evenodd" clip-rule="evenodd" d="M2.40552 16.9877C2.97552 17.7427 3.65052 18.4177 4.40552 18.9877H16.4055C17.1605 18.4177 17.8355 17.7427 18.4055 16.9877H2.40552Z" fill="#CDDAE2"/>
  <path fill-rule="evenodd" clip-rule="evenodd" d="M13.8206 14.9877H1.2406C1.5506 15.7027 1.9456 16.3727 2.4056 16.9877H13.8256V14.9877H13.8206Z" fill="#D2DEE6"/>
  <path fill-rule="evenodd" clip-rule="evenodd" d="M13.8206 11.4877V16.9877H18.4056L13.8206 11.4877Z" fill="#C3D3DD"/>
  <path fill-rule="evenodd" clip-rule="evenodd" d="M9.24054 16.9877H13.8205V11.4877L9.24054 16.9877Z" fill="white"/>
  <path d="M13.8206 9.98771C15.2013 9.98771 16.3206 8.86842 16.3206 7.48771C16.3206 6.107 15.2013 4.98771 13.8206 4.98771C12.4399 4.98771 11.3206 6.107 11.3206 7.48771C11.3206 8.86842 12.4399 9.98771 13.8206 9.98771Z" fill="white"/>
  <path d="M7.4906 5.98769C8.18096 5.98769 8.7406 5.42805 8.7406 4.73769C8.7406 4.04733 8.18096 3.48769 7.4906 3.48769C6.80024 3.48769 6.2406 4.04733 6.2406 4.73769C6.2406 5.42805 6.80024 5.98769 7.4906 5.98769Z" fill="white"/>
</svg>
